<svg width="53" height="53" viewBox="0 0 53 53" fill="none" xmlns="http://www.w3.org/2000/svg">
<path d="M28.0574 19.5522C28.366 19.2436 28.366 18.7436 28.0574 18.435C27.7488 18.1264 27.2488 18.1264 26.9402 18.435C26.6317 18.7436 26.6317 19.2436 26.9402 19.5522C27.2488 19.8608 27.7488 19.8608 28.0574 19.5522ZM25.2358 20.142C24.9272 20.4506 24.9272 20.9506 25.2358 21.2592C25.5444 21.5678 26.0444 21.5678 26.353 21.2592C26.6616 20.9506 26.6616 20.4506 26.353 20.142C26.0444 19.8334 25.5444 19.8334 25.2358 20.142ZM30.1304 20.5574C29.6473 20.0743 28.8647 20.0756 28.383 20.5574L27.3556 21.5848C26.8725 22.0678 26.8725 22.8504 27.3556 23.3322L28.4845 24.4611C28.9676 24.9441 29.7502 24.9428 30.2319 24.4611L31.2593 23.4337C31.7424 22.9506 31.7424 22.1681 31.2593 21.6863L30.1304 20.5574ZM26.3621 0C11.8034 0 0 11.8034 0 26.3608C0 40.9182 11.8034 52.7242 26.3621 52.7242C40.9208 52.7242 52.7242 40.9208 52.7242 26.3608C52.7242 11.8008 40.9208 0 26.3621 0ZM45.6956 30.8934C45.4169 32.5978 43.5471 32.6148 40.6174 30.6812C37.8687 28.8647 36.2971 27.3296 34.9286 24.577C33.9924 26.4624 31.8075 29.2671 28.1225 31.4728C26.2827 37.1968 17.53 48.1513 14.698 46.5979C13.8594 46.1383 13.7006 45.5341 13.8894 44.9091C14.0925 43.344 17.3295 39.7476 17.3295 39.7476C17.3295 39.7476 17.3985 40.5028 18.4337 42.0914C17.0665 37.8453 20.6941 32.6069 21.6551 30.8231C23.1655 30.3413 23.2749 28.4025 23.2749 28.4025C23.3712 25.4051 22.0327 23.2358 20.7358 21.9376C21.6681 23.0756 21.9702 24.7944 22.0144 26.3686V26.3777C22.0196 26.5561 22.0196 26.7306 22.0183 26.9038C21.9741 28.2072 21.5795 30.008 20.7358 30.008L20.7384 30.0197C19.8712 29.9819 18.8009 30.1681 17.8438 30.4663L15.7292 30.9715C15.7292 30.9715 16.8569 30.9194 17.4662 31.4455C16.7878 32.5497 15.28 33.9208 13.599 34.6994C11.1524 35.8335 10.4493 33.577 11.6915 32.1082C11.9962 31.7489 12.3048 31.4468 12.5964 31.1994C12.4089 31.0054 12.2904 30.7463 12.2592 30.4155L12.2579 30.4103C12.0873 29.6616 12.1811 28.689 13.241 27.1434C13.4506 26.8166 13.7006 26.4806 14.0014 26.1395C14.0105 26.1277 14.0196 26.1173 14.0287 26.1056C14.0417 26.09 14.0561 26.0757 14.0691 26.06C14.0769 26.0509 14.0834 26.0431 14.0925 26.034C14.168 25.9481 14.2488 25.8634 14.3347 25.7827C15.5977 24.4884 17.5912 23.1447 20.7358 21.9376C24.4025 16.5483 25.7462 15.5365 25.7462 15.5365C26.1525 15.1212 26.8621 14.6055 27.1225 14.474C25.2072 11.1472 24.8217 6.45707 25.323 5.19274C25.2827 5.26175 25.2449 5.33076 25.2137 5.40368C25.3999 4.97138 25.5249 4.83206 25.7176 4.60419C26.241 3.9857 28.0132 3.66148 28.6486 4.97138C28.9871 5.6706 29.0509 6.57556 29.0405 7.25395C27.6369 7.18103 26.3634 8.7839 26.3634 8.7839C26.3634 8.7839 27.5262 8.23572 28.9702 8.2253C28.9702 8.2253 29.3556 8.55994 29.8348 9.18885C29.1864 10.4063 28.1199 12.9857 28.8921 15.6941C29.0197 16.228 29.2137 16.6863 29.4533 17.0769C29.4624 17.0938 29.4702 17.1108 29.4793 17.1277C29.4989 17.1524 29.5158 17.1733 29.534 17.1967C30.8101 19.1186 33.1499 19.3426 33.1499 19.3426C32.0483 18.7931 31.1512 17.9181 30.5679 16.8569C30.2645 16.2892 30.0783 15.81 29.9637 15.4324C29.3439 13.0391 30.2567 11.6433 30.7788 10.7071C31.9793 8.8438 34.1681 7.71619 36.5197 7.98442C39.8205 8.36072 42.1916 11.3425 41.814 14.642C41.5836 16.6576 40.3817 18.3256 38.7294 19.2332C39.1265 20.3087 38.702 21.6134 38.702 21.6134C39.7033 22.8725 39.7463 23.5978 39.7124 24.2723C38.4403 24.0587 37.2046 24.9168 37.2046 24.9168C37.2046 24.9168 39.6591 24.3309 41.0835 25.603C42.0106 26.6004 42.6291 27.5015 42.9976 28.1668C43.525 29.116 45.9755 29.1838 45.6969 30.8908L45.6956 30.8934ZM40.0393 16.849C41.3427 14.366 39.4989 12.9154 38.2307 11.724C36.1994 9.81516 34.1734 8.98963 31.8608 11.6329C29.5483 14.2761 31.0171 17.3425 33.133 18.8556C35.2489 20.3686 38.7333 19.3321 40.0393 16.849ZM36.5354 15.8308C35.7202 14.8542 37.2437 13.0808 38.1994 14.1394C39.9598 16.0899 37.3518 16.8074 36.5354 15.8308Z" fill="#118596"/>
</svg>
