<svg width="250" height="54" viewBox="0 0 250 54" fill="none" xmlns="http://www.w3.org/2000/svg">
<path d="M28.0574 20.1901C28.366 19.8815 28.366 19.3815 28.0574 19.0729C27.7488 18.7643 27.2488 18.7643 26.9402 19.0729C26.6317 19.3815 26.6317 19.8815 26.9402 20.1901C27.2488 20.4987 27.7488 20.4987 28.0574 20.1901ZM25.2358 20.7799C24.9272 21.0885 24.9272 21.5885 25.2358 21.8971C25.5444 22.2057 26.0444 22.2057 26.353 21.8971C26.6616 21.5885 26.6616 21.0885 26.353 20.7799C26.0444 20.4713 25.5444 20.4713 25.2358 20.7799ZM30.1304 21.1953C29.6473 20.7122 28.8647 20.7135 28.383 21.1953L27.3556 22.2226C26.8725 22.7057 26.8725 23.4883 27.3556 23.97L28.4845 25.0989C28.9676 25.582 29.7502 25.5807 30.2319 25.0989L31.2593 24.0716C31.7424 23.5885 31.7424 22.806 31.2593 22.3242L30.1304 21.1953ZM26.3621 0.63788C11.8034 0.63788 0 12.4413 0 26.9987C0 41.5561 11.8034 53.3621 26.3621 53.3621C40.9208 53.3621 52.7242 41.5587 52.7242 26.9987C52.7242 12.4387 40.9208 0.63788 26.3621 0.63788ZM45.6956 31.5313C45.4169 33.2357 43.5471 33.2526 40.6174 31.319C37.8687 29.5026 36.2971 27.9675 34.9286 25.2148C33.9924 27.1003 31.8075 29.905 28.1225 32.1107C26.2827 37.8347 17.53 48.7892 14.698 47.2358C13.8594 46.7761 13.7006 46.172 13.8894 45.547C14.0925 43.9819 17.3295 40.3855 17.3295 40.3855C17.3295 40.3855 17.3985 41.1407 18.4337 42.7292C17.0665 38.4831 20.6941 33.2448 21.6551 31.461C23.1655 30.9792 23.2749 29.0404 23.2749 29.0404C23.3712 26.043 22.0327 23.8737 20.7358 22.5755C21.6681 23.7135 21.9702 25.4323 22.0144 27.0065V27.0156C22.0196 27.194 22.0196 27.3685 22.0183 27.5417C21.9741 28.8451 21.5795 30.6459 20.7358 30.6459L20.7384 30.6576C19.8712 30.6198 18.8009 30.806 17.8438 31.1042L15.7292 31.6094C15.7292 31.6094 16.8569 31.5573 17.4662 32.0834C16.7878 33.1875 15.28 34.5586 13.599 35.3373C11.1524 36.4714 10.4493 34.2149 11.6915 32.7461C11.9962 32.3867 12.3048 32.0847 12.5964 31.8373C12.4089 31.6433 12.2904 31.3841 12.2592 31.0534C12.2592 31.0521 12.2579 31.0495 12.2579 31.0482C12.0873 30.2995 12.1811 29.3268 13.241 27.7813C13.4506 27.4544 13.7006 27.1185 14.0014 26.7773C14.0105 26.7656 14.0196 26.7552 14.0287 26.7435C14.0417 26.7279 14.0561 26.7135 14.0691 26.6979C14.0769 26.6888 14.0834 26.681 14.0925 26.6719C14.168 26.5859 14.2488 26.5013 14.3347 26.4206C15.5977 25.1263 17.5912 23.7825 20.7358 22.5755C24.4025 17.1861 25.7462 16.1744 25.7462 16.1744C26.1525 15.7591 26.8621 15.2434 27.1225 15.1119C25.2072 11.7851 24.8217 7.09495 25.323 5.83062C25.2827 5.89963 25.2449 5.96864 25.2137 6.04155C25.3999 5.60926 25.5249 5.46994 25.7176 5.24207C26.241 4.62358 28.0132 4.29936 28.6486 5.60926C28.9871 6.30848 29.0509 7.21344 29.0405 7.89183C27.6369 7.81891 26.3634 9.42178 26.3634 9.42178C26.3634 9.42178 27.5262 8.8736 28.9702 8.86318C28.9702 8.86318 29.3556 9.19782 29.8348 9.82673C29.1864 11.0442 28.1199 13.6236 28.8921 16.332C29.0197 16.8658 29.2137 17.3242 29.4533 17.7148C29.4624 17.7317 29.4702 17.7486 29.4793 17.7656C29.4989 17.7903 29.5158 17.8111 29.534 17.8346C30.8101 19.7565 33.1499 19.9804 33.1499 19.9804C32.0483 19.4309 31.1512 18.5559 30.5679 17.4947C30.2645 16.927 30.0783 16.4479 29.9637 16.0703C29.3439 13.677 30.2567 12.2812 30.7788 11.345C31.9793 9.48168 34.1681 8.35407 36.5197 8.6223C39.8205 8.9986 42.1916 11.9804 41.814 15.2799C41.5836 17.2955 40.3817 18.9635 38.7294 19.8711C39.1265 20.9466 38.702 22.2513 38.702 22.2513C39.7033 23.5104 39.7463 24.2357 39.7124 24.9101C38.4403 24.6966 37.2046 25.5547 37.2046 25.5547C37.2046 25.5547 39.6591 24.9687 41.0835 26.2409C42.0106 27.2383 42.6291 28.1393 42.9976 28.8047C43.525 29.7539 45.9755 29.8216 45.6969 31.5287L45.6956 31.5313ZM40.0393 17.4869C41.3427 15.0038 39.4989 13.5533 38.2307 12.3619C36.1994 10.453 34.1734 9.62751 31.8608 12.2708C29.5483 14.914 31.0171 17.9804 33.133 19.4934C35.2489 21.0065 38.7333 19.97 40.0393 17.4869ZM36.5354 16.4687C35.7202 15.4921 37.2437 13.7187 38.1994 14.7773C39.9598 16.7278 37.3518 17.4453 36.5354 16.4687ZM79.9978 29.4727C79.4041 28.8789 78.684 28.3307 77.839 27.8268C76.9926 27.3229 76.033 26.8307 74.9574 26.349C73.9496 25.8893 73.1293 25.4726 72.4965 25.0976C71.8637 24.7226 71.3988 24.3411 71.1019 23.9557C70.8051 23.569 70.6566 23.1237 70.6566 22.6198C70.6566 22.2057 70.7803 21.8411 71.0264 21.5273C71.2725 21.2135 71.6475 20.97 72.1527 20.7968C72.6566 20.6237 73.3012 20.5364 74.085 20.5364C75.1827 20.5364 76.2556 20.7018 77.3025 21.0325C78.3494 21.3633 79.1254 21.7239 79.6293 22.1159L80.6033 17.4453C80.1554 17.177 79.3377 16.8684 78.1502 16.5208C76.9626 16.1744 75.4288 15.9999 73.5473 15.9999C72.2256 15.9999 71.0212 16.1432 69.9353 16.4283C68.848 16.7135 67.9105 17.1419 67.1214 17.7135C66.3324 18.2851 65.7217 18.9987 65.2907 19.8554C64.8597 20.7122 64.6436 21.7122 64.6436 22.8541C64.6436 24.1875 64.9118 25.3372 65.4496 26.306C65.9873 27.2747 66.6983 28.1042 67.5837 28.793C68.4678 29.4818 69.4379 30.0781 70.49 30.5821C71.7335 31.1758 72.727 31.668 73.4717 32.0599C74.2165 32.4519 74.7517 32.836 75.0759 33.211C75.4001 33.586 75.5629 34.043 75.5629 34.5808C75.5629 35.3204 75.2973 35.8581 74.7647 36.1941C74.2322 36.53 73.378 36.698 72.2022 36.698C71.3285 36.698 70.4639 36.6107 69.6071 36.4376C68.7504 36.2644 67.9691 36.0534 67.2634 35.8073C66.5576 35.5612 65.9977 35.3204 65.5837 35.0847L64.8102 39.9571C65.1345 40.1589 65.6957 40.3803 66.4899 40.6199C67.2855 40.8608 68.223 41.0678 69.3037 41.2423C70.3845 41.4154 71.5186 41.5027 72.7061 41.5027C74.6658 41.5027 76.3233 41.198 77.6788 40.5873C79.0343 39.9766 80.0616 39.1173 80.7621 38.0079C81.4614 36.8985 81.8116 35.6003 81.8116 34.1094C81.8116 33.1237 81.658 32.2526 81.3494 31.4974C81.0408 30.7409 80.5916 30.0664 79.9978 29.4727ZM198.682 31.5977C197.758 31.0547 196.686 30.5026 195.465 29.9427C194.625 29.5625 193.927 29.1836 193.372 28.8086C192.819 28.4336 192.547 27.8711 192.557 27.1198C192.569 26.5599 192.851 26.1263 193.406 25.8177C193.961 25.5104 194.803 25.3555 195.935 25.3555C196.506 25.3555 197.071 25.4088 197.631 25.5156C198.191 25.6224 198.687 25.7656 199.118 25.944C199.549 26.1237 199.871 26.2969 200.084 26.4648L200.639 23.289C200.337 23.1094 199.729 22.8971 198.816 22.651C197.903 22.4049 196.825 22.2812 195.582 22.2812C194.338 22.2812 193.104 22.4661 192.045 22.8359C190.987 23.2057 190.142 23.763 189.509 24.5078C188.876 25.2526 188.548 26.1914 188.526 27.3216C188.514 28.3294 188.716 29.1979 189.131 29.9258C189.545 30.6537 190.142 31.293 190.92 31.8412C191.699 32.3894 192.626 32.8998 193.7 33.3698C194.428 33.6836 195.08 33.9831 195.657 34.2683C196.234 34.5534 196.687 34.8646 197.018 35.2006C197.347 35.5365 197.514 35.9336 197.514 36.3933C197.514 37.0313 197.245 37.5274 196.707 37.8803C196.169 38.2331 195.373 38.4037 194.321 38.3933C193.526 38.3816 192.752 38.2865 192.004 38.1081C191.252 37.9284 190.609 37.7305 190.071 37.5118C189.534 37.293 189.175 37.1172 188.996 36.9831L188.458 40.0912C188.76 40.3152 189.23 40.5365 189.869 40.7553C190.509 40.974 191.245 41.1524 192.079 41.293C192.914 41.4337 193.778 41.5027 194.674 41.5027C196.814 41.5027 198.505 41.0404 199.748 40.116C200.992 39.1915 201.613 37.8347 201.613 36.0417C201.613 35.0222 201.355 34.1628 200.841 33.4623C200.325 32.7631 199.607 32.1407 198.682 31.5977ZM215.196 37.7722C214.832 37.8842 214.452 37.9766 214.055 38.0495C213.657 38.1225 213.301 38.1589 212.988 38.1589C212.418 38.1589 211.98 38.0834 211.678 37.9323C211.376 37.7813 211.169 37.431 211.057 36.8829C210.945 36.3347 210.889 35.461 210.889 34.2618V25.5924H216.064V22.5182H210.889V18.2513H208.319C208.161 18.7213 208.014 19.164 207.874 19.5781C207.733 19.9921 207.605 20.3711 207.487 20.7122C207.37 21.0547 207.265 21.3476 207.176 21.5937C206.963 22.1315 206.627 22.4896 206.168 22.6692C205.708 22.8489 205.065 23.056 204.235 23.2903V25.5924H206.604V36.3451C206.604 37.6667 206.791 38.7006 207.166 39.4454C207.541 40.1902 208.077 40.7188 208.771 41.0326C209.465 41.3464 210.299 41.5027 211.273 41.5027C211.989 41.5027 212.702 41.4206 213.406 41.2592C214.112 41.0964 214.756 40.8894 215.338 40.6381C215.92 40.3855 216.374 40.1251 216.699 39.8568L216.044 37.4206C215.842 37.5443 215.56 37.6602 215.196 37.7722ZM229.131 22.2487C228.348 22.2487 227.588 22.3997 226.855 22.7018C226.121 23.0039 225.486 23.3763 224.948 23.819C224.5 24.1875 224.183 24.5469 223.984 24.8958L223.738 22.5508H220.058V41.2331H224.342V27.7917C224.553 27.5964 224.793 27.3945 225.09 27.1797C225.499 26.8828 225.986 26.6315 226.552 26.4245C227.117 26.2174 227.764 26.1133 228.492 26.1133C229.22 26.1133 229.753 26.1641 230.088 26.2643C230.424 26.3646 230.677 26.4661 230.845 26.5664V22.4843C230.699 22.3945 230.475 22.3333 230.173 22.2995C229.871 22.2656 229.523 22.2487 229.131 22.2487ZM249.208 27.3307C248.66 25.8138 247.758 24.5924 246.504 23.6679C245.249 22.7435 243.576 22.2825 241.48 22.2825C239.811 22.2825 238.314 22.6328 236.986 23.332C235.659 24.0325 234.609 25.0651 233.836 26.431C233.064 27.7982 232.66 29.4831 232.626 31.4883C232.615 32.8216 232.76 34.0899 233.062 35.293C233.365 36.4974 233.852 37.5639 234.525 38.4936C235.197 39.4232 236.079 40.1563 237.171 40.6941C238.263 41.2318 239.587 41.5001 241.145 41.5001C242.836 41.5001 244.342 41.1472 245.664 40.4415C246.986 39.7357 248.03 38.6967 248.798 37.3256C249.565 35.9532 249.966 34.2657 249.999 32.2604C250.021 30.4909 249.757 28.849 249.208 27.3307ZM244.538 36.823C243.82 37.948 242.729 38.5001 241.262 38.4779C240.264 38.4675 239.456 38.1446 238.835 37.5118C238.212 36.879 237.756 36.0417 237.465 35C237.173 33.9584 237.027 32.8164 237.027 31.5729C237.027 29.5456 237.385 27.9922 238.103 26.9102C238.82 25.8294 239.911 25.3008 241.379 25.3229C242.375 25.3346 243.185 25.6445 243.806 26.2552C244.427 26.8659 244.884 27.681 245.174 28.6992C245.466 29.7188 245.612 30.849 245.612 32.0925C245.612 34.1198 245.255 35.698 244.538 36.823ZM172.954 16.0169L163.63 41.2344H168.25L170.22 35.3881H180.019L181.925 41.2344H186.646L177.423 16.0169H172.954ZM171.296 32.1953L174.45 22.8372L175.207 20.2669L175.929 22.8372L178.98 32.1953H171.296ZM98.1607 22.9049C96.9732 22.4453 95.3989 22.2161 93.4393 22.2161C92.3195 22.2161 91.2153 22.3281 90.1294 22.5521C89.0434 22.776 88.0656 23.0482 87.1984 23.3672C86.3299 23.6862 85.6671 23.9857 85.2075 24.2656L86.451 27.8268C86.9992 27.569 87.6385 27.3424 88.3664 27.1471C89.0942 26.9505 89.8468 26.7969 90.6255 26.6849C91.4041 26.5729 92.1515 26.5169 92.8677 26.5169C93.7075 26.5169 94.3547 26.6458 94.8078 26.9036C95.2609 27.1615 95.4888 27.7044 95.4888 28.5326V29.6419C94.7049 29.6419 93.8677 29.6706 92.9771 29.7266C92.0864 29.7826 91.1984 29.8919 90.3143 30.0547C89.4289 30.2175 88.6124 30.461 87.8611 30.7852C86.8195 31.2227 85.9992 31.8464 85.4002 32.6589C84.8012 33.4714 84.5017 34.4258 84.5017 35.5235C84.5017 36.6889 84.7505 37.7214 85.2492 38.6238C85.7479 39.5261 86.4536 40.2305 87.3663 40.741C88.2791 41.2501 89.352 41.5053 90.5838 41.5053C91.8156 41.5053 92.9054 41.3087 93.7505 40.9167C94.5956 40.5248 95.2766 40.1042 95.7922 39.6563V41.2358H101.538V29.2734C101.538 27.5495 101.273 26.1706 100.74 25.1406C100.208 24.1107 99.3482 23.3646 98.1607 22.9049ZM95.4888 36.9662C95.3768 37.0899 95.1971 37.2097 94.951 37.3269C94.7049 37.4441 94.4211 37.543 94.1021 37.6211C93.7831 37.6993 93.4614 37.7383 93.1359 37.7383C92.52 37.7383 91.9679 37.5404 91.481 37.142C90.994 36.7448 90.7505 36.1029 90.7505 35.2188C90.7505 34.5469 90.9041 34.0677 91.2127 33.7826C91.52 33.4974 91.8481 33.2813 92.1958 33.1354C92.4198 33.0352 92.7166 32.9427 93.0864 32.8581C93.4562 32.7748 93.8508 32.7071 94.2713 32.6563C94.6919 32.6055 95.0969 32.5756 95.4901 32.5638L95.4888 36.9662ZM159.648 23.8203C158.91 23.2552 158.075 22.8567 157.145 22.6276C156.216 22.3984 155.252 22.2838 154.256 22.2838C152.273 22.2838 150.585 22.6979 149.191 23.5273C147.796 24.3568 146.73 25.4883 145.99 26.9206C145.251 28.3542 144.881 29.9779 144.881 31.793C144.881 34.8282 145.677 37.2058 147.266 38.9245C148.856 40.6433 151.164 41.504 154.188 41.504C155.298 41.504 156.335 41.4063 157.306 41.2097C158.274 41.0144 159.126 40.7618 159.859 40.4532C160.592 40.1459 161.166 39.823 161.582 39.487L160.641 36.2618C160.339 36.4193 159.904 36.5704 159.339 36.7149C158.774 36.8607 158.16 36.9779 157.5 37.0678C156.839 37.1576 156.207 37.2019 155.601 37.2019C154.627 37.2019 153.792 37.0508 153.098 36.7487C152.403 36.4467 151.869 35.9623 151.494 35.2956C151.196 34.767 151.014 34.099 150.938 33.3047H161.919C161.975 32.9011 162.022 32.3972 162.062 31.793C162.101 31.1875 162.121 30.5495 162.121 29.8776C162.11 28.3763 161.88 27.1341 161.432 26.1484C160.984 25.1628 160.39 24.3867 159.651 23.8216L159.648 23.8203ZM156.472 30.28H150.977C151.033 29.6953 151.117 29.1823 151.23 28.7513C151.476 27.8099 151.843 27.1471 152.33 26.7604C152.817 26.3737 153.414 26.181 154.119 26.181C154.735 26.181 155.226 26.332 155.589 26.6341C155.954 26.9362 156.205 27.3932 156.346 28.0026C156.486 28.6133 156.528 29.3724 156.472 30.28ZM121.36 23.2487C120.229 22.6054 118.997 22.2825 117.665 22.2825C116.555 22.2825 115.62 22.4192 114.859 22.694C114.097 22.9687 113.476 23.2903 112.994 23.6601C112.674 23.9049 112.408 24.1289 112.188 24.3346V22.5169H106.442V49.5314H112.524V43.517L112.468 41.0079C112.584 41.0509 112.701 41.0938 112.835 41.1394C113.534 41.3803 114.439 41.5001 115.549 41.5001C117.464 41.5001 119.141 41.0795 120.58 40.2397C122.019 39.3998 123.136 38.2097 123.932 36.6693C124.727 35.1289 125.124 33.3008 125.124 31.1836C125.124 29.0664 124.779 27.5013 124.09 26.1849C123.402 24.8685 122.492 23.8893 121.36 23.2448V23.2487ZM118.252 34.7565C117.938 35.625 117.51 36.2826 116.967 36.7305C116.424 37.1784 115.794 37.4024 115.076 37.4024C114.527 37.4024 114.023 37.349 113.564 37.2422C113.105 37.1355 112.758 36.9649 112.523 36.7292V27.7578C112.847 27.5 113.292 27.2734 113.859 27.0781C114.424 26.8828 115.01 26.7839 115.614 26.7839C116.577 26.7839 117.338 27.1276 117.899 27.8164C118.459 28.5052 118.739 29.7513 118.739 31.5547C118.727 32.8203 118.564 33.8881 118.252 34.7565ZM140.235 36.6303C139.558 36.7644 138.821 36.8321 138.025 36.8321C137.23 36.8321 136.527 36.6667 135.884 36.336C135.239 36.0066 134.73 35.4597 134.355 34.698C133.98 33.9362 133.803 32.9115 133.826 31.6237C133.848 30.4479 134.07 29.5208 134.49 28.8438C134.911 28.1667 135.437 27.6875 136.07 27.4076C136.703 27.1276 137.343 26.987 137.993 26.987C138.889 26.987 139.631 27.0651 140.219 27.2227C140.808 27.3802 141.286 27.5586 141.656 27.7604L142.328 23.1901C142.025 22.9661 141.403 22.7591 140.463 22.569C139.522 22.3789 138.419 22.2838 137.153 22.2838C134.969 22.2838 133.18 22.7174 131.786 23.5859C130.391 24.4544 129.359 25.6276 128.686 27.1055C128.014 28.5833 127.678 30.2357 127.678 32.0612C127.678 33.8868 128.002 35.4779 128.652 36.8998C129.301 38.323 130.292 39.4454 131.626 40.2683C132.959 41.0912 134.656 41.5027 136.717 41.5027C137.926 41.5027 139.085 41.3855 140.195 41.1498C141.304 40.9141 142.115 40.5287 142.631 39.991L141.858 36.1602C141.454 36.3399 140.912 36.4961 140.235 36.6303Z" fill="#118596"/>
</svg>
